<svg width="205" height="161" viewBox="0 0 205 161" fill="none" xmlns="http://www.w3.org/2000/svg">
<path d="M187.9 70.6649C188.36 72.0649 188.24 72.3549 187.03 72.5549C184.02 73.0649 181.01 73.5649 177.99 74.0149C176.99 74.1649 176.04 74.6849 174.99 74.4849C171.24 74.8149 167.6 75.7649 163.94 76.5449C120.07 85.8449 77.4804 99.2049 36.1904 116.715C35.0904 117.175 33.9304 117.555 32.9104 118.165C30.9204 119.345 28.8604 119.385 26.6704 118.975C24.8704 118.635 23.0404 118.415 21.2304 118.125C20.7004 118.035 20.0804 118.125 19.6504 117.365C23.4404 115.855 27.2004 114.305 30.9904 112.845C65.4104 99.6249 100.64 89.1149 136.64 81.1349C149.04 78.3749 161.52 76.0849 174.03 73.8849C175.72 73.3449 177.47 73.1949 179.2 72.9449C179.23 72.9349 179.27 72.8149 179.25 72.7749C179.18 72.6549 179.08 72.5449 178.99 72.4349C178.4 72.4549 177.81 72.4849 177.22 72.5249C173.11 72.8149 169.05 73.5449 164.98 74.1449C147.2 76.7449 129.54 80.0449 112 83.9749C85.8004 89.8349 59.9304 96.9149 34.4904 105.485C32.4904 106.155 30.6604 106.335 28.6804 105.635C26.7404 104.955 24.6804 104.665 22.3504 103.665C23.3304 103.305 23.9304 103.055 24.5504 102.865C45.5204 96.2849 66.7704 90.8049 88.2204 86.0349C103.81 82.5749 119.5 79.5849 135.28 77.0649C149.09 74.8649 162.95 73.0949 176.87 71.6949C177.18 71.6649 177.5 71.5949 177.81 71.5449C176.46 70.7449 174.97 71.3349 173.56 71.1349C170.03 70.9949 166.54 71.5049 163.04 71.7949C152.92 72.6249 142.83 73.7249 132.77 75.0249C119.06 76.7949 105.4 78.9049 91.8004 81.3849C73.5804 84.7149 55.4504 88.5149 37.4904 93.1149C36.4604 93.3749 35.5004 93.3749 34.4804 92.8749C32.5604 91.9249 30.5704 91.1049 28.5804 90.2149C28.9104 89.5049 29.5004 89.5249 30.0004 89.4149C48.3704 85.1749 66.8904 81.6849 85.5104 78.7449C99.5704 76.5249 113.66 74.6349 127.81 73.1649C147.06 71.1549 166.36 69.8149 185.72 69.5549C186.34 69.5449 187 69.6949 187.59 69.3549H187.6C187.84 69.3149 188.19 69.1249 188.07 69.6549C188.02 69.8449 187.96 70.0249 187.91 70.2049C187.91 70.3649 187.91 70.5149 187.9 70.6649Z" fill="white"/>
<path d="M102 0.604884C131.1 0.604884 160.2 0.604884 189.31 0.604884C195.64 0.604884 200.79 4.02488 203.03 9.62488C203.85 11.6649 204.02 13.7949 204.02 15.9749C204.02 41.3949 204.02 66.8149 204.02 92.2349C204.02 101.905 204.06 111.575 204.01 121.255C203.98 127.975 199.88 133.405 193.62 135.185C192.08 135.625 190.49 135.785 188.88 135.785C131 135.785 73.11 135.785 15.23 135.785C7.96004 135.785 2.45004 131.815 0.570042 125.345C0.170042 123.955 0.040042 122.525 0.040042 121.075C0.030042 85.8149 0.070042 50.5649 4.20345e-05 15.3049C-0.019958 6.58488 7.10004 0.514884 14.93 0.554884C43.95 0.694884 72.97 0.614884 102 0.614884V0.604884ZM187.91 70.6649C187.91 70.5149 187.91 70.3549 187.91 70.2049C187.97 70.0249 188.02 69.8349 188.08 69.6549C188.2 69.1149 187.85 69.3149 187.6 69.3449C187 69.6849 186.35 69.5349 185.72 69.5449C166.36 69.8049 147.06 71.1549 127.82 73.1549C113.67 74.6249 99.58 76.5149 85.52 78.7349C66.89 81.6749 48.38 85.1649 30 89.4049C29.5 89.5249 28.91 89.5049 28.58 90.2149C30.57 91.1049 32.56 91.9249 34.49 92.8749C35.5 93.3749 36.46 93.3749 37.5 93.1149C55.45 88.5149 73.58 84.7249 91.81 81.3949C105.41 78.9049 119.07 76.7949 132.77 75.0249C142.84 73.7249 152.93 72.6249 163.04 71.7949C166.54 71.5049 170.03 70.9949 173.56 71.1349C174.97 71.3349 176.46 70.7449 177.81 71.5349C177.5 71.5849 177.18 71.6549 176.87 71.6849C162.96 73.0849 149.09 74.8549 135.28 77.0549C119.5 79.5749 103.82 82.5649 88.22 86.0249C66.78 90.7949 45.52 96.2649 24.56 102.855C23.94 103.045 23.33 103.295 22.35 103.655C24.68 104.665 26.75 104.955 28.68 105.635C30.65 106.325 32.49 106.155 34.49 105.475C59.94 96.9049 85.8 89.8249 112 83.9649C129.54 80.0449 147.2 76.7449 164.98 74.1349C169.63 73.4549 174.27 72.5949 178.99 72.4249C179.08 72.5349 179.18 72.6449 179.25 72.7649C179.27 72.7949 179.23 72.9249 179.2 72.9349C177.46 73.1949 175.71 73.3349 174.02 73.8749C161.51 76.0849 149.03 78.3649 136.62 81.1249C100.62 89.1149 65.39 99.6149 30.97 112.845C27.18 114.305 23.43 115.845 19.63 117.365C20.06 118.125 20.68 118.035 21.21 118.115C23.02 118.405 24.85 118.625 26.65 118.965C28.83 119.375 30.9 119.335 32.88 118.145C33.9 117.535 35.06 117.165 36.16 116.695C77.45 99.1849 120.04 85.8249 163.91 76.5249C167.57 75.7449 171.21 74.7949 174.96 74.4749C176.02 74.6749 176.97 74.1549 177.97 74.0049C180.99 73.5549 184 73.0549 187.01 72.5449C188.22 72.3449 188.34 72.0549 187.88 70.6549H187.89L187.91 70.6649ZM117.2 30.2849C117.87 30.9949 117.78 31.5849 117.84 32.1249C118.83 40.9449 119.4 49.7849 119.7 58.6449C119.81 61.9149 121.34 63.7749 124.53 64.6249C126.1 65.0449 127.71 64.9049 129.3 64.9249C131.66 64.9449 131.66 64.9249 131.64 62.5749C131.64 61.9349 131.6 61.2949 131.57 60.6549C131.3 55.7049 131.1 50.7549 130.73 45.8249C130.25 39.2149 129.71 32.6049 128.82 26.0349C127.99 19.9649 124.19 16.3849 118.47 15.9149C116.24 15.7349 114.7 16.4249 113.32 18.1549C110.46 21.7649 108.37 25.7849 106.72 30.0449C103.94 37.2249 101.17 44.4149 98.36 51.6649C98.19 51.4049 98.03 51.2249 97.95 51.0049C94.81 42.0249 90.72 33.4449 87.15 24.6349C85.71 21.0849 83.11 18.7749 79.61 17.3749C76.43 16.1049 73.11 15.8549 69.73 15.8849C68.7101 15.8849 68.3 16.3349 68.15 17.2349C67.93 18.4949 67.68 19.7449 67.47 21.0049C65.98 29.7449 65.01 38.5549 64.26 47.3849C63.96 50.8849 63.81 54.4049 63.74 57.9149C63.67 61.6149 65.48 63.9049 68.9 64.6949C70.47 65.0549 72.09 64.8449 73.68 64.9349C74.82 65.0049 75.2101 64.5649 75.23 63.4349C75.3 59.9249 75.47 56.4049 75.58 52.8949C75.75 47.5449 76.19 42.2049 76.7 36.8849C76.91 34.6449 77 32.3549 77.76 30.0949C78.58 30.6749 78.73 31.4949 79.05 32.1949C81.47 37.4149 83.44 42.8149 85.64 48.1249C87.01 51.4449 88.25 54.8249 89.72 58.1049C91.72 62.5649 94.9201 65.2749 100.16 64.9749C101.41 64.9049 102.23 64.5849 102.91 63.5249C104.46 61.0849 105.71 58.5049 106.76 55.8249C109.34 49.2049 111.9 42.5749 114.48 35.9549C115.23 34.0349 115.99 32.1149 117.19 30.2949L117.2 30.2849ZM177.49 48.1949C177.32 48.2249 177.15 48.2549 176.98 48.2949C175.41 45.0749 173.62 41.9849 171.78 38.9249C169.1 34.4749 166.49 29.9849 163.81 25.5449C160.84 20.6049 156.81 17.0549 150.9 16.1249C148.52 15.7549 146.11 15.9249 143.72 15.9249C141.76 15.9249 141.73 15.9549 141.73 17.8849C141.72 25.1549 141.73 32.4249 141.73 39.7049C141.73 45.8549 141.8 52.0149 141.71 58.1649C141.66 61.8049 143.9 64.1949 147.36 64.7849C149 65.0649 150.71 64.8949 152.38 64.9349C153.08 64.9449 153.39 64.5949 153.38 63.9149C153.38 63.2749 153.38 62.6349 153.38 61.9949C153.38 52.0049 153.38 42.0149 153.38 32.0249V29.1949C154.95 30.7449 155.75 32.1949 156.6 33.5749C160.33 39.6249 164.03 45.7049 167.73 51.7649C169.65 54.9049 171.72 57.9349 174.35 60.5449C177.25 63.4349 180.67 65.1149 184.86 64.9349C185.74 64.8949 186.62 64.9549 187.5 64.9349C189.18 64.8949 189.23 64.8849 189.23 63.1749C189.24 49.5049 189.26 35.8449 189.23 22.1749C189.23 18.9149 186.92 16.3649 183.69 16.0049C182.03 15.8249 180.34 15.9449 178.66 15.9149C177.87 15.9049 177.49 16.2549 177.51 17.0649C177.53 17.6249 177.51 18.1849 177.51 18.7449C177.51 27.7749 177.51 36.8049 177.51 45.8349V48.2049L177.49 48.1949ZM14.81 41.1349C14.81 46.8149 14.81 52.4849 14.81 58.1649C14.81 61.9849 16.17 63.6249 19.94 64.5249C22.7 65.1749 25.51 64.8749 28.3 64.9149C30.07 64.9449 30.1 64.8849 30.1 63.0249C30.12 57.4249 30.1 51.8349 30.11 46.2349C30.11 44.1549 30.14 44.1249 32.22 44.1249C37.66 44.1149 43.09 44.1249 48.53 44.1249C50.22 44.1249 51.88 43.9749 53.48 43.3749C56.3 42.3049 57.31 40.6749 57.2 37.6749C57.16 36.5449 56.78 36.1249 55.63 36.1649C53.63 36.2349 51.63 36.1849 49.63 36.1849C43.71 36.1849 37.8 36.1849 31.88 36.1849C29.32 36.1849 29.59 36.2349 29.58 33.8049C29.58 31.3249 29.58 28.8449 29.58 26.3749C29.58 24.1549 29.6 24.1349 31.78 24.1349C38.82 24.1349 45.85 24.1149 52.89 24.1349C54.75 24.1349 56.56 23.9249 58.28 23.2049C60.9 22.0949 61.81 20.6849 61.76 17.8349C61.73 15.9749 61.73 15.9349 59.96 15.9349C48.21 15.9349 36.45 15.9549 24.7 15.9749C22.93 15.9749 21.2 16.2649 19.5 16.7449C16.85 17.4949 15.25 19.1949 14.93 21.9749C14.84 22.7649 14.79 23.5649 14.79 24.3649C14.78 29.9649 14.79 35.5549 14.79 41.1549L14.81 41.1349Z" fill="#027845"/>
<path d="M99.0607 150.516C95.9807 151.006 95.8707 151.126 95.8407 153.766C95.8407 154.406 95.8207 155.046 95.8407 155.676C95.8707 156.426 95.6707 156.896 94.7907 156.876C94.0507 156.856 93.8407 156.476 93.8407 155.826C93.8407 153.836 93.8407 151.846 93.8107 149.856C93.8007 148.926 94.3207 148.836 95.0607 148.966C95.4907 149.046 95.6607 149.836 96.2507 149.416C97.4007 148.586 98.1707 148.406 98.3807 150.246C98.4607 150.936 99.1507 150.916 99.6207 150.336C100.541 149.186 101.741 148.716 103.191 148.806C105.361 148.936 106.771 150.456 106.821 152.736C106.871 155.196 105.321 156.916 102.981 157.016C100.791 157.106 99.1107 155.716 98.9107 153.516C98.8307 152.596 98.9907 151.646 99.0507 150.516H99.0607ZM104.781 152.766C104.731 151.386 103.991 150.376 102.971 150.296C101.941 150.226 101.201 150.976 101.021 152.286C100.801 153.896 101.401 155.196 102.491 155.456C103.201 155.626 103.761 155.316 104.161 154.786C104.601 154.196 104.781 153.496 104.771 152.756L104.781 152.766Z" fill="#352F30"/>
<path d="M173.49 150.544C170.37 150.994 170.25 151.114 170.22 153.734C170.22 154.454 170.21 155.164 170.22 155.884C170.23 156.584 169.91 156.874 169.21 156.874C168.49 156.874 168.22 156.534 168.22 155.854C168.22 153.864 168.22 151.874 168.19 149.884C168.18 148.984 168.78 148.604 169.37 149.004C170.18 149.554 170.7 149.334 171.42 148.954C172.11 148.594 172.49 148.834 172.68 149.734C172.95 151.004 173.2 151.044 174.12 150.154C174.96 149.344 175.87 148.824 177.06 148.784C179.5 148.704 181.14 150.224 181.21 152.684C181.28 155.144 179.74 156.884 177.4 157.004C175.03 157.124 173.29 155.504 173.25 153.064C173.24 152.284 173.39 151.504 173.49 150.524V150.544ZM179.15 152.564C179.06 152.284 178.95 151.724 178.72 151.234C178.38 150.514 177.76 150.184 176.95 150.324C176.01 150.484 175.44 151.364 175.39 152.704C175.33 154.154 175.87 155.184 176.82 155.454C177.63 155.674 178.25 155.294 178.66 154.654C179 154.114 179.2 153.494 179.16 152.564H179.15Z" fill="#352F30"/>
<path d="M166.269 153.646C166.269 156.646 166.079 156.846 163.099 156.976C159.449 157.136 157.099 155.166 156.949 151.796C156.789 148.336 159.059 145.976 162.679 145.866C163.469 145.846 164.269 145.926 165.059 146.046C165.609 146.126 165.889 146.506 165.719 147.076C165.569 147.586 165.279 147.876 164.669 147.726C164.129 147.596 163.569 147.496 163.019 147.496C159.909 147.526 158.129 150.356 159.419 153.206C160.129 154.776 161.959 155.606 163.619 155.166C164.229 155.006 164.339 154.616 164.289 154.116C164.219 153.466 164.589 152.606 163.519 152.386C163.209 152.326 162.849 152.336 162.609 152.176C162.199 151.906 162.379 150.946 162.839 150.806C162.989 150.756 163.159 150.786 163.319 150.776C165.293 150.57 166.279 151.523 166.279 153.636L166.269 153.646Z" fill="#352F30"/>
<path d="M88.78 156.566C85.23 156.986 83.36 155.026 84.15 151.706C84.68 149.486 86.41 148.426 88.65 148.986C89.02 149.076 89.33 149.346 89.77 149.306C91.6 149.146 91.59 149.166 91.58 150.816C91.57 152.656 91.63 154.496 91.55 156.326C91.41 159.496 88.15 161.296 85.29 159.856C84.85 159.636 84.73 159.316 84.83 158.886C84.94 158.446 85.24 158.236 85.72 158.326C86.27 158.426 86.82 158.556 87.38 158.556C88.32 158.566 89.12 158.296 89.4 157.246C89.56 156.906 89.71 156.496 89.44 156.236C89.19 155.996 88.96 156.326 88.79 156.556L88.78 156.566ZM89.55 152.876C89.57 151.246 89.08 150.436 88.03 150.366C86.91 150.286 86.08 151.326 86.08 152.836C86.08 154.286 86.74 155.166 87.86 155.196C89.02 155.226 89.54 154.506 89.56 152.886L89.55 152.876Z" fill="#352F30"/>
<path d="M36.7094 148.996C37.0194 148.176 36.8494 147.296 36.8594 146.436C36.8594 145.756 37.0794 145.395 37.7994 145.365C38.5894 145.335 38.9494 145.605 38.9494 146.455C38.9494 149.565 38.9894 152.686 39.0294 155.796C39.0294 156.636 38.4994 157.166 37.8594 156.776C36.9894 156.256 36.3894 156.396 35.5794 156.806C34.6694 157.266 33.6994 157.035 32.8494 156.475C31.3494 155.495 30.7494 153.016 31.5194 151.056C32.1794 149.376 33.5894 148.606 35.5594 148.846C35.9394 148.896 36.2794 149.236 36.7194 148.966L36.7094 148.996ZM36.8694 152.945C36.8994 151.205 36.2894 150.315 35.1194 150.365C34.0794 150.405 33.3394 151.386 33.2894 152.776C33.2394 154.346 33.9694 155.345 35.1594 155.335C36.2994 155.335 36.8394 154.565 36.8694 152.945Z" fill="#352F30"/>
<path d="M67.1095 148.885C67.1095 148.065 67.1295 147.195 67.1095 146.315C67.0795 145.545 67.5195 145.375 68.1595 145.365C68.8295 145.365 69.1795 145.595 69.1795 146.335C69.1795 149.525 69.2395 152.725 69.2595 155.915C69.2595 156.815 68.5395 157.145 67.9895 156.755C67.1895 156.205 66.6595 156.395 65.9295 156.755C64.9195 157.265 63.8995 157.035 62.9895 156.405C61.5195 155.375 60.9795 152.865 61.7995 150.955C62.5095 149.305 63.8895 148.605 65.8995 148.885C66.1995 148.925 66.4595 149.235 67.1095 148.875V148.885ZM67.0995 152.765C67.0795 151.195 66.4895 150.365 65.4095 150.365C64.2895 150.365 63.4995 151.465 63.5195 152.955C63.5395 154.405 64.2295 155.315 65.3395 155.345C66.5295 155.375 67.1195 154.505 67.0995 152.765Z" fill="#352F30"/>
<path d="M194.251 156.615C193.871 157.365 194.051 158.185 194.051 158.965C194.051 159.665 193.801 159.975 193.091 159.995C192.291 160.015 191.951 159.735 191.961 158.885C191.981 155.935 191.961 152.975 191.901 150.025C191.881 148.975 192.641 148.535 193.201 149.025C194.061 149.775 194.531 149.235 195.241 148.995C197.131 148.345 198.771 149.155 199.491 151.015C200.151 152.715 199.941 154.335 198.841 155.765C197.881 157.015 196.651 157.195 194.261 156.615H194.251ZM194.041 152.815C194.071 153.515 193.981 154.245 194.531 154.835C195.231 155.585 196.321 155.605 197.051 154.865C197.941 153.965 197.931 151.845 197.021 150.935C196.261 150.175 195.251 150.215 194.521 151.035C194.051 151.555 194.071 152.195 194.041 152.825V152.815Z" fill="#352F30"/>
<path d="M83.3996 156.576C81.8696 157.236 81.0896 156.766 80.8596 155.356C80.6296 153.946 79.7796 153.666 78.4696 153.706C77.3196 153.736 76.6396 154.026 76.4896 155.236C76.4396 155.626 76.2596 155.996 76.0896 156.366C75.7896 157.036 75.1596 156.926 74.6296 156.846C73.9096 156.746 74.0896 156.176 74.2296 155.736C75.1696 152.766 76.1496 149.816 77.0696 146.846C77.3096 146.056 77.8296 145.936 78.5296 145.946C79.2496 145.956 79.9596 145.856 80.2596 146.796C81.2896 150.046 82.3396 153.296 83.3996 156.586V156.576ZM79.9296 152.066C79.5196 150.766 79.1496 149.586 78.6996 148.146C78.0296 149.546 77.6196 150.766 77.4296 152.076C78.2796 152.306 78.9696 152.276 79.9296 152.076V152.066Z" fill="#352F30"/>
<path d="M122.511 156.595C120.991 157.215 120.2 156.755 119.96 155.365C119.74 154.145 119.11 153.735 117.84 153.695C116.46 153.655 115.75 154.085 115.52 155.415C115.4 156.135 115.24 156.865 114.27 156.875C113.54 156.875 113 156.815 113.34 155.805C114.32 152.875 115.261 149.925 116.161 146.965C116.431 146.085 116.96 145.875 117.75 145.955C118.35 146.015 119.07 145.765 119.31 146.645C119.44 147.105 119.621 147.545 119.761 148.005C120.671 150.855 121.591 153.715 122.511 156.605V156.595ZM116.401 152.205C117.401 152.135 118.17 152.425 119.03 151.955C118.53 150.785 118.511 149.435 117.581 148.295C117.191 149.595 116.841 150.735 116.401 152.205Z" fill="#352F30"/>
<path d="M149.689 149.105C150.119 148.135 149.889 147.175 149.929 146.235C149.949 145.635 150.209 145.375 150.799 145.385C151.369 145.395 151.939 145.355 151.939 146.195C151.939 149.465 151.969 152.725 151.979 155.995C151.979 156.965 151.139 157.145 150.699 156.775C149.859 156.075 149.319 156.535 148.599 156.835C147.659 157.235 146.719 157.055 145.869 156.485C144.399 155.515 143.769 153.255 144.439 151.325C145.079 149.475 146.469 148.635 148.529 148.875C148.909 148.915 149.289 149.025 149.689 149.105ZM149.939 152.835C149.939 151.215 149.239 150.285 148.079 150.365C147.019 150.435 146.179 151.625 146.229 153.005C146.279 154.345 147.049 155.315 148.109 155.335C149.299 155.365 149.939 154.495 149.939 152.825V152.835Z" fill="#352F30"/>
<path d="M189.91 153.025C189.91 153.985 189.88 154.945 189.91 155.895C189.95 156.835 189.26 157.165 188.72 156.785C187.9 156.225 187.37 156.515 186.61 156.795C184.75 157.475 183.37 156.605 182.92 154.595C182.57 153.015 182.8 151.415 182.76 149.825C182.74 149.105 183.17 148.895 183.84 148.895C184.58 148.895 184.8 149.265 184.81 149.925C184.83 151.205 184.85 152.475 184.92 153.745C184.97 154.635 185.4 155.325 186.39 155.245C187.31 155.175 187.81 154.555 187.85 153.645C187.9 152.445 187.9 151.255 187.87 150.055C187.85 149.295 188.05 148.875 188.93 148.875C189.9 148.875 189.9 149.455 189.89 150.135C189.88 151.095 189.89 152.055 189.89 153.005L189.91 153.025Z" fill="#352F30"/>
<path d="M52.5708 152.675C52.5708 152.035 52.5708 151.395 52.5708 150.755C52.5808 149.015 52.5908 148.965 54.4108 149.415C55.0108 149.565 55.2508 149.135 55.6708 149.005C57.7808 148.345 59.4008 149.275 59.6508 151.465C59.8208 152.965 59.7208 154.495 59.7108 156.005C59.7108 156.765 59.1908 156.885 58.5608 156.865C57.9708 156.855 57.6908 156.545 57.6808 155.985C57.6708 155.105 57.6808 154.225 57.6708 153.355C57.6708 152.875 57.6808 152.395 57.6008 151.925C57.4708 151.185 57.1408 150.495 56.2708 150.465C55.3408 150.425 54.7308 151.045 54.6308 151.895C54.4908 153.075 54.5508 154.285 54.5608 155.475C54.5608 156.245 54.5608 156.925 53.4708 156.875C52.5108 156.835 52.5608 156.185 52.5508 155.545C52.5508 154.585 52.5508 153.625 52.5508 152.675H52.5708Z" fill="#352F30"/>
<path d="M140.949 155.445C141.269 155.365 141.499 155.305 141.739 155.255C142.129 155.175 142.299 155.395 142.419 155.725C142.589 156.185 142.449 156.515 141.999 156.675C140.419 157.225 138.849 157.235 137.399 156.305C135.959 155.385 135.429 153.255 136.089 151.345C136.679 149.635 138.169 148.675 139.969 148.795C141.319 148.885 142.209 149.585 142.719 150.775C143.589 152.805 143.129 153.495 140.929 153.515C140.129 153.515 139.329 153.485 138.539 153.565C137.809 153.635 137.879 154.195 138.199 154.585C138.939 155.465 139.969 155.585 140.959 155.435L140.949 155.445ZM139.529 152.105C140.079 151.975 140.979 152.405 140.949 151.385C140.919 150.535 140.249 150.225 139.439 150.255C138.609 150.285 137.959 150.755 138.019 151.525C138.089 152.455 139.019 151.945 139.539 152.105H139.529Z" fill="#352F30"/>
<path d="M7.58008 152.446C7.58008 153.606 7.58008 154.786 7.58008 155.976C7.58008 156.546 7.32008 156.856 6.73008 156.866C6.11008 156.876 5.59008 156.776 5.59008 156.006C5.59008 152.976 5.59008 149.956 5.58008 146.926C5.58008 146.216 5.90008 145.936 6.59008 145.936C8.10008 145.946 9.62008 145.936 11.1301 145.936C11.6001 145.936 11.8801 146.106 11.9001 146.606C11.9201 147.136 11.8001 147.546 11.1401 147.546C10.3401 147.546 9.55008 147.576 8.75008 147.556C7.56008 147.536 7.61008 148.336 7.58008 149.176C7.55008 150.036 7.80008 150.556 8.75008 150.546C9.47008 150.546 10.1801 150.556 10.9001 150.586C11.3601 150.606 11.6201 150.866 11.6501 151.326C11.6901 151.926 11.3901 152.176 10.8101 152.216C9.78008 152.286 8.74008 152.066 7.58008 152.436V152.446Z" fill="#352F30"/>
<path d="M30.0504 152.855C30.0504 155.305 28.4504 156.985 26.0904 157.025C23.7404 157.055 22.0604 155.355 22.0704 152.935C22.0704 150.495 23.6704 148.835 26.0604 148.805C28.4704 148.775 30.0504 150.375 30.0504 152.865V152.855ZM27.9804 153.245C28.0404 152.365 27.8404 151.835 27.6104 151.325C27.3304 150.695 26.8504 150.325 26.1304 150.295C25.4004 150.265 24.8904 150.625 24.5804 151.225C24.0404 152.285 24.0704 153.395 24.5204 154.465C24.7804 155.075 25.3104 155.485 26.0204 155.505C26.7204 155.525 27.2604 155.155 27.5504 154.535C27.7904 154.035 27.9004 153.485 27.9804 153.235V153.245Z" fill="#352F30"/>
<path d="M20.9303 152.945C20.8903 155.365 19.2303 157.035 16.8703 157.015C14.5203 156.995 12.9003 155.255 12.9503 152.825C13.0103 150.385 14.6303 148.775 17.0303 148.795C19.4203 148.805 20.9703 150.455 20.9203 152.945H20.9303ZM18.8803 152.575C18.7903 152.295 18.6803 151.735 18.4503 151.235C18.1103 150.515 17.4903 150.185 16.6803 150.325C15.7303 150.485 15.1703 151.355 15.1103 152.705C15.0503 154.155 15.5803 155.195 16.5403 155.455C17.3503 155.675 17.9703 155.305 18.3803 154.665C18.7203 154.135 18.9203 153.505 18.8803 152.575Z" fill="#352F30"/>
<path d="M50.5601 153.957C50.5601 154.357 50.5601 154.757 50.5601 155.157C50.5601 156.827 50.5601 156.887 48.7501 156.507C48.1901 156.387 47.8801 156.697 47.4601 156.817C45.7201 157.297 44.3301 156.697 43.9601 155.307C43.5701 153.837 44.3001 152.627 46.0001 152.037C46.5201 151.857 47.0901 151.807 47.6301 151.707C47.9401 151.647 48.2901 151.647 48.2901 151.217C48.2901 150.767 48.0201 150.477 47.6001 150.367C46.8901 150.187 46.1701 150.247 45.4801 150.487C45.0001 150.647 44.7101 150.457 44.5601 150.027C44.3801 149.517 44.7701 149.337 45.1401 149.167C48.0601 147.787 50.4501 149.277 50.5501 152.527C50.5601 153.007 50.5501 153.487 50.5501 153.967L50.5601 153.957ZM48.5601 153.887C48.6001 153.237 48.2201 153.057 47.6601 153.107C46.8301 153.177 46.0301 153.367 45.9201 154.377C45.8501 155.017 46.2101 155.437 46.8701 155.507C47.7501 155.607 48.5201 154.857 48.5501 153.887H48.5601Z" fill="#352F30"/>
<path d="M125.89 150.925C125.89 152.515 125.88 154.105 125.89 155.695C125.9 156.475 125.62 156.895 124.79 156.875C124.07 156.855 123.83 156.465 123.83 155.805C123.83 152.625 123.84 149.435 123.83 146.255C123.83 145.455 124.31 145.365 124.93 145.365C125.61 145.365 125.92 145.655 125.91 146.375C125.88 147.885 125.91 149.395 125.91 150.915L125.89 150.925Z" fill="#352F30"/>
<path d="M129.91 151.135C129.91 152.645 129.91 154.155 129.91 155.665C129.91 156.375 129.8 156.905 128.89 156.885C127.97 156.865 127.91 156.295 127.91 155.605C127.91 152.585 127.93 149.575 127.91 146.555C127.91 145.805 128.07 145.365 128.95 145.365C129.88 145.365 129.93 145.915 129.92 146.605C129.91 148.115 129.92 149.625 129.92 151.135H129.91Z" fill="#352F30"/>
<path d="M132.24 152.726C132.24 151.766 132.25 150.806 132.24 149.856C132.23 149.126 132.6 148.916 133.28 148.906C134.02 148.906 134.25 149.246 134.25 149.926C134.24 151.926 134.24 153.916 134.25 155.916C134.25 156.636 133.9 156.886 133.21 156.886C132.47 156.886 132.24 156.506 132.24 155.846C132.24 154.806 132.24 153.766 132.24 152.736V152.726Z" fill="#352F30"/>
<path d="M110.32 153.215C109.85 153.215 109.37 153.215 108.9 153.215C108.45 153.215 108.15 153.025 108.18 152.525C108.21 152.075 108.45 151.815 108.93 151.805C109.72 151.805 110.51 151.805 111.3 151.795C111.84 151.785 112.24 151.945 112.25 152.555C112.27 153.255 111.74 153.215 111.27 153.235C110.95 153.235 110.64 153.235 110.32 153.235V153.215Z" fill="#352F30"/>
<path d="M133.231 145.715C133.871 145.795 134.321 146.095 134.301 146.735C134.281 147.465 133.831 147.905 133.091 147.815C132.491 147.745 132.141 147.335 132.181 146.675C132.221 146.005 132.671 145.775 133.231 145.705V145.715Z" fill="#352F30"/>
<path d="M117.2 30.2861C116 32.1161 115.24 34.0261 114.49 35.9461C111.91 42.5661 109.35 49.1961 106.77 55.8161C105.73 58.5061 104.47 61.0761 102.92 63.5161C102.25 64.5761 101.42 64.8961 100.17 64.9661C94.93 65.2661 91.73 62.5561 89.73 58.0961C88.26 54.8161 87.02 51.4361 85.65 48.1161C83.45 42.8061 81.48 37.3961 79.06 32.1861C78.74 31.4861 78.59 30.6661 77.77 30.0861C77.01 32.3461 76.92 34.6361 76.71 36.8761C76.2 42.2061 75.76 47.5361 75.59 52.8861C75.48 56.3961 75.31 59.9061 75.24 63.4261C75.22 64.5561 74.83 64.9961 73.69 64.9261C72.1 64.8261 70.49 65.0461 68.91 64.6861C65.49 63.8961 63.68 61.6161 63.75 57.9061C63.82 54.3961 63.97 50.8761 64.27 47.3761C65.02 38.5461 65.99 29.7361 67.48 20.9961C67.69 19.7361 67.94 18.4861 68.16 17.2261C68.32 16.3261 68.72 15.8861 69.74 15.8761C73.12 15.8561 76.44 16.0961 79.62 17.3661C83.12 18.7661 85.72 21.0761 87.16 24.6261C90.72 33.4261 94.82 42.0161 97.96 50.9961C98.04 51.2161 98.21 51.3961 98.37 51.6561C101.17 44.4061 103.94 37.2161 106.73 30.0361C108.38 25.7661 110.47 21.7561 113.33 18.1461C114.7 16.4161 116.25 15.7161 118.48 15.9061C124.2 16.3761 128 19.9461 128.83 26.0261C129.72 32.5961 130.26 39.2061 130.74 45.8161C131.1 50.7561 131.31 55.7061 131.58 60.6461C131.61 61.2861 131.65 61.9261 131.65 62.5661C131.67 64.9061 131.67 64.9261 129.31 64.9161C127.72 64.9061 126.12 65.0361 124.54 64.6161C121.35 63.7761 119.82 61.9061 119.71 58.6361C119.41 49.7761 118.84 40.9261 117.85 32.1161C117.79 31.5761 117.87 30.9861 117.21 30.2761L117.2 30.2861Z" fill="#F8D72C"/>
<path d="M177.49 48.194V45.824C177.49 36.794 177.49 27.764 177.49 18.734C177.49 18.174 177.51 17.614 177.49 17.054C177.47 16.254 177.85 15.894 178.64 15.904C180.32 15.934 182.01 15.814 183.67 15.994C186.91 16.354 189.21 18.904 189.21 22.164C189.24 35.834 189.23 49.494 189.21 63.164C189.21 64.874 189.16 64.884 187.48 64.924C186.6 64.944 185.72 64.894 184.84 64.924C180.65 65.094 177.24 63.414 174.33 60.534C171.7 57.924 169.63 54.894 167.71 51.754C164 45.684 160.3 39.614 156.58 33.564C155.73 32.184 154.93 30.734 153.36 29.184V32.014C153.36 42.004 153.36 51.994 153.36 61.984C153.36 62.624 153.34 63.264 153.36 63.904C153.36 64.584 153.06 64.944 152.36 64.924C150.68 64.894 148.97 65.054 147.34 64.774C143.89 64.194 141.64 61.794 141.69 58.154C141.78 52.004 141.71 45.844 141.71 39.694C141.71 32.424 141.71 25.154 141.71 17.874C141.71 15.944 141.75 15.914 143.7 15.914C146.1 15.914 148.51 15.744 150.88 16.114C156.78 17.034 160.81 20.584 163.79 25.534C166.47 29.984 169.08 34.474 171.76 38.914C173.6 41.974 175.4 45.064 176.96 48.284C177.13 48.254 177.3 48.224 177.47 48.184L177.49 48.194Z" fill="#F8D72C"/>
<path d="M14.8105 41.1341C14.8105 35.5341 14.8105 29.9441 14.8105 24.3441C14.8105 23.5441 14.8605 22.7441 14.9505 21.9541C15.2705 19.1741 16.8705 17.4741 19.5205 16.7241C21.2205 16.2441 22.9505 15.9541 24.7205 15.9541C36.4705 15.9341 48.2305 15.9141 59.9805 15.9141C61.7605 15.9141 61.7605 15.9541 61.7805 17.8141C61.8205 20.6641 60.9205 22.0741 58.3005 23.1841C56.5805 23.9141 54.7705 24.1241 52.9105 24.1141C45.8705 24.0941 38.8405 24.1041 31.8005 24.1141C29.6205 24.1141 29.6105 24.1341 29.6005 26.3541C29.5905 28.8341 29.6005 31.3141 29.6005 33.7841C29.6005 36.2141 29.3405 36.1641 31.9005 36.1641C37.8205 36.1641 43.7305 36.1641 49.6505 36.1641C51.6505 36.1641 53.6505 36.2141 55.6505 36.1441C56.7905 36.1041 57.1805 36.5341 57.2205 37.6541C57.3305 40.6541 56.3205 42.2941 53.5005 43.3541C51.9105 43.9541 50.2405 44.1041 48.5505 44.1041C43.1105 44.1041 37.6805 44.1041 32.2405 44.1041C30.1605 44.1041 30.1305 44.1341 30.1305 46.2141C30.1205 51.8141 30.1305 57.4041 30.1205 63.0041C30.1205 64.8641 30.0805 64.9241 28.3205 64.8941C25.5305 64.8441 22.7205 65.1541 19.9605 64.5041C16.1905 63.6141 14.8405 61.9741 14.8305 58.1441C14.8205 52.4641 14.8305 46.7941 14.8305 41.1141L14.8105 41.1341Z" fill="#F8D72C"/>
<path d="M178.999 72.4241C174.279 72.5941 169.639 73.4541 164.989 74.1341C147.209 76.7441 129.549 80.0441 112.009 83.9641C85.8094 89.8241 59.9494 96.9041 34.4994 105.474C32.4994 106.144 30.6694 106.324 28.6894 105.634C26.7494 104.954 24.6894 104.664 22.3594 103.654C23.3394 103.294 23.9494 103.054 24.5694 102.854C45.5294 96.2741 66.7894 90.7941 88.2294 86.0241C103.829 82.5541 119.509 79.5741 135.289 77.0541C149.099 74.8541 162.969 73.0841 176.879 71.6841C177.199 71.6541 177.509 71.5841 177.819 71.5341C181.199 71.3741 184.559 71.1241 187.909 70.6641H187.899C187.659 71.3241 186.819 71.0441 186.489 71.5741C185.689 71.4541 184.889 71.5241 184.109 71.7141C183.749 71.5941 183.399 71.5941 183.079 71.8241C182.139 71.9441 181.209 72.0641 180.269 72.1841C179.819 72.1041 179.369 72.0741 178.999 72.4141V72.4241Z" fill="#F8D72C"/>
<path d="M183.079 71.8358C183.399 71.6058 183.749 71.6058 184.109 71.7258C184.939 72.2458 185.739 72.3558 186.489 71.5858C186.809 71.0558 187.659 71.3358 187.899 70.6758C188.359 72.0758 188.239 72.3658 187.029 72.5658C184.019 73.0758 181.009 73.5758 177.989 74.0258C176.989 74.1758 176.039 74.6958 174.979 74.4958C174.979 73.8058 174.349 74.0958 174.029 73.8958C175.709 73.3558 177.469 73.2058 179.209 72.9558C179.239 72.9558 179.279 72.8258 179.259 72.7858C179.189 72.6658 179.089 72.5558 178.999 72.4358C179.369 72.0858 179.819 72.1158 180.269 72.1958C181.289 72.6958 182.279 73.0058 183.079 71.8358Z" fill="#057A47"/>
<path d="M173.57 71.1351C178.33 70.4851 183.13 70.4051 187.92 70.2051C187.92 70.3551 187.92 70.5151 187.92 70.6651C184.57 71.1251 181.2 71.3851 177.83 71.5351C176.48 70.7351 174.99 71.3251 173.58 71.1351H173.57Z" fill="#057A47"/>
<path d="M188.08 69.656C187.92 69.556 187.76 69.446 187.6 69.346C187.85 69.316 188.2 69.116 188.08 69.656Z" fill="#057A47"/>
<path d="M183.08 71.8359C182.28 73.0059 181.29 72.6959 180.27 72.1959C181.21 72.0759 182.14 71.9559 183.08 71.8359Z" fill="#027845"/>
<path d="M186.489 71.5754C185.739 72.3554 184.939 72.2454 184.109 71.7154C184.889 71.5254 185.689 71.4454 186.489 71.5754Z" fill="#027845"/>
</svg>
