<svg width="284" height="151" viewBox="0 0 284 151" fill="none" xmlns="http://www.w3.org/2000/svg">
<path d="M56.8017 150.701C39.0417 150.701 21.2917 150.701 3.53167 150.701C2.89167 150.701 2.25165 150.681 1.61165 150.701C0.731653 150.731 0.251665 150.391 0.311665 149.441C0.351665 148.801 0.311665 148.161 0.311665 147.521C0.311665 114.491 0.311665 81.4712 0.311665 48.4412C0.311665 39.1612 2.78167 30.5812 7.75167 22.8012C15.3817 10.8512 26.2717 3.67119 40.2517 1.11119C43.6517 0.491187 47.0417 0.201187 50.4917 0.211187C70.4817 0.251187 90.4817 0.231187 110.472 0.231187C112.278 0.231187 113.258 1.12119 113.412 2.90119C113.462 3.46119 113.442 4.02119 113.442 4.58119C113.442 16.1712 113.442 27.7712 113.442 39.3612C113.442 42.1145 112.075 43.4879 109.342 43.4812C106.452 43.4712 106.652 43.8412 106.652 40.7712C106.652 30.6912 106.652 20.6212 106.652 10.5412C106.652 9.98119 106.612 9.42119 106.652 8.86119C106.742 7.67119 106.292 7.09119 105.022 7.12119C103.502 7.15119 101.982 7.02119 100.472 7.02119C85.1117 7.02119 69.7617 6.97119 54.4017 7.04119C49.0517 7.06119 43.6717 6.93119 38.4417 8.39119C22.0117 12.9912 11.9317 23.7012 7.98168 40.2412C7.01168 44.3212 7.08165 48.4912 7.08165 52.6412C7.08165 82.2312 7.08165 111.811 7.08165 141.401C7.08165 141.641 7.10165 141.881 7.08165 142.121C6.96165 143.201 7.30166 143.821 8.52166 143.681C8.99166 143.631 9.48166 143.681 9.96166 143.681C41.1517 143.681 72.3417 143.681 103.542 143.681C103.942 143.681 104.342 143.681 104.742 143.681C106.532 143.641 106.562 143.641 106.572 141.801C106.592 135.721 106.572 129.651 106.582 123.571C106.582 121.641 106.612 121.641 108.582 121.621C109.622 121.611 110.662 121.671 111.702 121.601C112.722 121.541 113.092 121.981 113.212 122.951C113.312 123.821 113.472 124.681 113.472 125.561C113.462 132.601 113.472 139.631 113.462 146.671C113.462 150.681 113.432 150.681 109.602 150.681C92.0017 150.681 74.4117 150.681 56.8117 150.681L56.8017 150.701Z" fill="#FFDC03"/>
<path d="M183.013 111.422C179.703 115.882 175.143 115.912 170.513 115.272C167.003 114.782 164.703 112.132 164.443 108.812C164.113 104.432 165.593 101.762 169.273 100.452C172.613 99.2623 176.103 98.8223 179.633 98.7723C181.443 98.7423 181.563 98.6623 181.363 96.9223C181.123 94.9323 180.343 94.0423 178.473 93.6223C176.683 93.2223 175.383 93.7523 174.373 95.3123C174.243 95.5123 174.133 95.7323 174.033 95.9423C173.26 97.469 172.063 98.0323 170.443 97.6323C169.203 97.3223 167.973 96.9523 166.723 96.7023C165.903 96.5323 165.713 96.0923 165.763 95.3423C165.993 92.4123 167.523 90.2423 169.833 88.6023C173.983 85.6423 181.983 85.4623 186.313 88.1923C189.353 90.1123 190.583 93.0923 190.793 96.5123C190.953 99.0623 190.853 101.622 190.883 104.182C190.913 106.932 190.953 107.012 193.583 107.782C194.213 107.962 194.523 108.272 194.663 108.882C195.003 110.282 195.273 111.702 195.763 113.042C196.203 114.242 195.873 114.742 194.713 115.152C190.593 116.632 186.483 115.562 183.703 112.212C183.553 112.032 183.393 111.862 183.013 111.432V111.422ZM179.113 103.342C177.943 103.382 176.663 103.432 175.463 103.892C174.203 104.372 173.563 105.482 173.763 106.702C173.963 107.972 174.863 108.742 176.243 108.842C178.793 109.012 181.233 106.772 181.333 104.202C181.363 103.502 181.173 103.132 180.403 103.242C180.013 103.302 179.613 103.312 179.113 103.352V103.342Z" fill="#057A47"/>
<path d="M266.681 89.2315C267.381 89.1815 267.751 88.4915 268.301 88.0815C271.641 85.6315 277.171 85.6215 280.481 88.0815C282.421 89.5315 283.311 91.5815 283.351 93.8915C283.451 100.281 283.391 106.671 283.441 113.061C283.441 114.151 282.981 114.421 282.001 114.401C279.841 114.361 277.691 114.401 275.531 114.381C273.831 114.361 273.791 114.341 273.781 112.691C273.761 108.541 273.781 104.381 273.771 100.231C273.771 99.3515 273.771 98.4615 273.641 97.6015C273.341 95.7315 272.231 94.7915 270.401 94.7115C268.601 94.6315 267.281 95.4915 266.781 97.2015C266.421 98.4315 266.341 99.7115 266.341 100.991C266.361 104.901 266.321 108.821 266.361 112.731C266.371 113.911 266.111 114.461 264.771 114.401C262.621 114.291 260.461 114.341 258.301 114.381C257.261 114.401 256.691 114.201 256.691 112.951C256.731 104.721 256.731 96.5015 256.691 88.2715C256.691 87.2315 257.051 86.8615 258.071 86.8815C260.231 86.9315 262.391 86.9715 264.541 86.8615C265.911 86.7915 266.441 87.2615 266.271 88.6015C266.241 88.8115 266.261 89.0915 266.661 89.2015L266.681 89.2315Z" fill="#057A47"/>
<path d="M51.802 86.9803C54.802 86.9803 57.662 86.9803 60.522 86.9803C61.102 86.9803 61.402 87.2103 61.422 87.8103C61.442 88.2703 61.3321 88.7803 61.7621 89.1403C62.2021 89.1403 62.492 88.8702 62.802 88.6102C65.912 85.9702 69.452 85.7803 73.172 86.9203C76.722 88.0003 78.312 90.8203 78.462 94.1703C78.742 100.47 78.602 106.79 78.652 113.1C78.652 113.98 78.3721 114.42 77.4121 114.41C75.0121 114.38 72.6221 114.36 70.2221 114.41C69.1121 114.44 68.902 113.92 68.902 112.96C68.932 109.05 68.932 105.13 68.902 101.22C68.902 100.03 68.9021 98.8103 68.7021 97.6403C68.3521 95.6703 67.242 94.7403 65.492 94.6903C63.592 94.6403 62.0721 95.7602 61.7321 97.6802C61.4921 99.0102 61.4621 100.38 61.4421 101.73C61.4021 105.4 61.3921 109.08 61.4421 112.75C61.4621 114 61.0621 114.42 59.7921 114.36C57.6421 114.26 55.4821 114.29 53.3221 114.36C52.2021 114.39 51.662 114.03 51.782 112.86C51.822 112.47 51.782 112.06 51.782 111.66C51.782 104.31 51.782 96.9602 51.782 89.6102V86.9702L51.802 86.9803Z" fill="#057A47"/>
<path d="M100.322 114.391C99.8124 113.511 99.9923 112.701 99.9923 111.911C99.9723 108.001 99.9924 104.091 99.9724 100.171C99.9724 99.3711 99.9323 98.5711 99.8323 97.7811C99.5923 95.8811 98.5524 94.8711 96.7523 94.7011C95.0423 94.5411 93.5723 95.4311 93.0323 97.0711C92.6623 98.2111 92.5223 99.4011 92.5323 100.611C92.5623 104.681 92.5023 108.751 92.5623 112.831C92.5823 114.071 92.2024 114.501 90.9424 114.451C88.7924 114.361 86.6324 114.391 84.4724 114.451C83.4024 114.481 82.9023 114.231 82.9023 113.001C82.9523 104.781 82.9423 96.5511 82.9023 88.3311C82.9023 87.3211 83.1823 86.8911 84.2423 86.9111C86.3923 86.9611 88.5523 86.9911 90.7123 86.9111C91.9723 86.8611 92.7023 87.1511 92.5523 88.5711C92.5323 88.7711 92.4923 89.0711 92.8323 89.1611C93.3823 89.2811 93.6423 88.8211 93.9923 88.5411C97.0923 86.1011 100.572 85.8211 104.192 86.9311C107.712 88.0011 109.552 90.6811 109.622 94.7911C109.722 100.061 109.672 105.331 109.682 110.601C109.682 111.481 109.662 112.361 109.682 113.231C109.702 114.001 109.442 114.421 108.592 114.411C105.802 114.391 103.012 114.411 100.302 114.411L100.322 114.391Z" fill="#057A47"/>
<path d="M139.392 96.1016C139.242 98.0816 139.772 100.012 139.682 102.002C139.342 109.972 134.112 116.092 124.012 115.612C116.072 115.232 111.192 109.862 110.772 101.462C110.342 92.9016 116.142 85.6216 126.632 86.3716C132.502 86.7916 136.642 89.7216 138.802 95.2916C138.922 95.6116 138.872 96.1316 139.432 96.1416L139.392 96.1016ZM120.532 101.042C120.652 102.622 120.822 104.202 121.632 105.632C122.462 107.092 123.742 107.742 125.402 107.702C127.072 107.662 128.292 106.912 128.972 105.362C130.182 102.602 130.262 99.8116 129.162 97.0016C128.452 95.2016 127.172 94.3216 125.342 94.2916C123.442 94.2516 122.162 95.1616 121.392 96.8416C120.792 98.1716 120.602 99.5916 120.542 101.052L120.532 101.042Z" fill="#057A47"/>
<path d="M255.143 100.881C255.223 103.721 254.703 106.291 253.423 108.651C250.463 114.081 245.503 115.861 239.713 115.601C231.693 115.241 226.663 109.971 226.303 101.911C226.233 100.311 226.223 98.7211 226.573 97.1411C227.993 90.8211 233.123 86.0311 241.213 86.3211C247.883 86.5611 252.513 89.9511 254.363 95.6111C254.943 97.3711 255.233 99.1711 255.133 100.881H255.143ZM240.843 94.2711C239.173 94.2111 237.843 94.8911 237.093 96.3711C235.563 99.4111 235.543 102.551 237.093 105.581C238.423 108.191 242.203 108.471 243.953 106.211C245.723 103.921 245.733 98.0811 243.953 95.7811C243.173 94.7711 242.133 94.2611 240.843 94.2711Z" fill="#057A47"/>
<path d="M139.432 96.1428C139.982 95.4328 139.432 94.8028 139.252 94.1828C138.562 91.8228 137.812 89.4828 136.982 86.8428C140.112 86.6628 143.022 86.6928 145.932 86.8428C147.212 86.9128 147.352 87.9928 147.602 88.8828C148.612 92.5728 149.572 96.2828 150.562 99.9828C150.952 101.423 151.362 102.863 151.862 104.663C152.592 103.783 152.652 103.003 152.832 102.333C154.002 97.8528 155.132 93.3728 156.272 88.8928C156.619 87.5328 157.519 86.8494 158.972 86.8428C161.362 86.8428 163.752 86.8428 166.032 86.8428C166.542 87.5628 166.142 88.0528 165.982 88.5628C163.502 96.5628 161.032 104.563 158.542 112.553C157.982 114.353 157.822 114.463 155.802 114.473C153.242 114.493 150.692 114.493 148.132 114.473C145.722 114.453 145.622 114.393 144.912 112.163C143.412 107.453 141.952 102.723 140.432 98.0228C140.212 97.3428 140.402 96.3828 139.392 96.1128L139.432 96.1528V96.1428Z" fill="#057A47"/>
<path d="M147.433 74.5808C145.813 74.6408 144.473 74.7708 143.013 74.4708V68.9508C142.053 68.8708 142.133 69.6108 141.913 70.0408C139.873 74.0708 136.163 75.8608 131.523 75.0108C127.463 74.2708 124.933 71.2608 124.493 66.7508C124.253 64.3308 124.693 62.0108 125.543 59.7208C122.75 59.5075 121.353 60.7275 121.353 63.3808C121.353 67.0508 121.353 70.7208 121.353 74.3708C118.433 74.7842 116.973 73.6142 116.973 70.8608C116.973 67.7408 116.933 64.6308 116.993 61.5108C117.013 60.3008 116.843 59.4808 115.383 59.6108C114.643 59.6708 114.423 59.1808 114.453 58.5408C114.513 57.4408 113.953 56.0408 115.843 55.8208C116.253 55.7708 116.263 55.1908 116.423 54.8308C116.813 53.9608 117.173 53.0608 117.603 52.2108C119.053 49.3408 121.433 48.2708 124.543 49.0608C126.163 49.4708 126.423 49.7908 126.553 51.5408C126.583 51.9408 126.553 52.3408 126.553 52.7808C125.443 53.2308 124.323 52.7708 123.233 52.8908C122.353 52.9908 121.713 53.3108 121.453 54.2108C121.143 55.2708 121.533 55.8208 122.673 55.9008C123.153 55.9308 123.633 55.9208 124.113 55.9008C124.813 55.8808 125.133 56.2008 125.103 56.9108C125.083 57.3908 125.073 57.8708 125.113 58.3508C125.143 58.7208 124.943 59.1408 125.503 59.6508C127.833 56.6308 130.943 55.2608 134.753 55.6408C138.753 56.0308 141.173 58.4208 142.543 62.1208C142.693 62.0708 142.833 62.0108 142.983 61.9608C142.983 60.7408 142.983 59.5208 142.983 58.3008C142.99 56.7608 143.79 55.9975 145.383 56.0108C145.463 56.0108 145.543 56.0208 145.623 56.0108C146.763 55.8108 147.463 56.2508 147.553 57.6308C148.973 56.9208 149.983 55.8408 151.463 55.6708C153.503 55.4408 153.833 55.6708 153.853 57.7108C153.86 59.1175 153.146 59.9275 151.713 60.1408C148.963 60.5408 147.793 61.6808 147.573 64.5308C147.393 66.7508 147.463 69.0008 147.433 71.2408C147.423 72.2808 147.433 73.3108 147.433 74.5808ZM137.843 65.4708C137.743 64.4908 137.683 63.3808 137.513 62.2808C137.243 60.5508 136.043 59.6808 134.443 59.3608C132.863 59.0508 131.413 59.3608 130.343 60.6808C128.743 62.6808 128.493 67.1108 129.813 69.3408C130.763 70.9508 132.593 71.8608 134.243 71.5408C136.133 71.1808 137.363 69.8208 137.643 67.7508C137.743 67.0408 137.763 66.3208 137.843 65.4708Z" fill="#057A47"/>
<path d="M201.702 79.9614C202.422 79.9614 203.142 79.9514 203.862 79.9614C206.392 80.0014 206.372 79.4914 206.362 82.3414C206.362 82.5014 206.362 82.6614 206.362 82.8214C206.402 84.0114 206.032 85.5014 206.602 86.3114C207.252 87.2314 208.842 86.6414 210.012 86.6514C211.032 86.6614 211.452 86.9914 211.412 88.0414C211.352 89.6314 211.362 91.2314 211.412 92.8314C211.442 93.8114 211.152 94.2414 210.072 94.2814C208.932 94.3214 207.402 93.6214 206.722 94.7014C206.212 95.5114 206.552 96.8714 206.542 97.9914C206.532 100.141 206.512 102.301 206.542 104.451C206.582 107.151 207.422 107.901 210.032 107.681C211.772 107.531 211.782 107.531 212.212 109.151C212.582 110.531 212.922 111.931 213.302 113.311C213.512 114.051 213.342 114.561 212.552 114.761C208.962 115.661 205.382 116.321 201.722 115.051C198.472 113.921 197.202 112.311 197.082 108.901C196.942 104.681 196.832 100.451 196.722 96.2214C196.672 94.4114 196.682 94.4114 194.942 94.2814C192.902 94.1414 192.902 94.1414 192.882 92.0814C192.872 90.8014 192.922 89.5214 192.872 88.2514C192.832 87.2514 193.172 86.7414 194.222 86.8214C194.622 86.8514 195.022 86.8014 195.422 86.8214C196.312 86.8714 196.732 86.5414 196.672 85.5714C196.602 84.3814 196.652 83.1814 196.662 81.9814C196.682 79.9714 196.692 79.9614 198.812 79.9514C199.772 79.9514 200.732 79.9514 201.682 79.9514L201.702 79.9614Z" fill="#057A47"/>
<path d="M47.3524 96.6501C47.3524 101.92 47.3524 107.18 47.3524 112.45C47.3524 114.36 47.3224 114.38 45.3624 114.39C43.0524 114.41 40.7324 114.36 38.4224 114.41C37.4024 114.43 36.9924 114.08 37.0124 113.04C37.0524 110.65 37.0224 108.25 37.0224 105.86C37.0224 97.5601 37.0224 89.2701 37.0224 80.9701C37.0224 78.8001 37.0424 78.7901 39.2724 78.7901C41.3424 78.7901 43.4224 78.7701 45.4924 78.7901C47.3124 78.8101 47.3424 78.8301 47.3424 80.6201C47.3524 85.9701 47.3424 91.3101 47.3424 96.6601L47.3524 96.6501Z" fill="#027845"/>
<path d="M55.4926 60.8202C53.4726 65.0902 49.8926 65.8202 45.9626 65.9002C44.6126 65.9302 42.8726 65.3202 42.0326 66.2002C41.1126 67.1602 41.7626 68.9302 41.7126 70.3402C41.6626 71.6902 41.7026 73.0402 41.7026 74.3302C41.4326 74.4702 41.3026 74.6002 41.1726 74.6102C38.3192 74.7435 36.8926 73.3602 36.8926 70.4602C36.8926 64.4702 36.8926 58.4802 36.8926 52.4902C36.8926 50.6502 36.9226 50.6302 38.7126 50.6202C41.7426 50.6002 44.7826 50.5702 47.8126 50.6502C51.1326 50.7402 53.9526 51.7902 55.3226 55.1502C55.6226 55.8902 56.1026 56.0702 56.8026 56.0402C57.4426 56.0202 58.0926 56.1102 58.7126 56.0202C59.9426 55.8502 60.4526 56.4302 60.4026 57.8102C61.8626 56.8902 62.9526 55.7802 64.5726 55.6902C66.6326 55.5702 66.9026 55.7702 66.9126 57.8402C66.9126 59.2202 66.2593 59.9802 64.9526 60.1202C61.9626 60.4402 60.5826 61.8002 60.4026 64.9402C60.2626 67.4102 60.3526 69.8902 60.3326 72.3602C60.3259 73.8535 59.6093 74.6035 58.1826 74.6102C55.9826 74.6102 55.9726 74.6102 55.9726 72.4302C55.9726 69.3202 55.9826 66.2002 55.9626 63.0902C55.9626 62.4902 56.1526 61.8402 55.5126 60.8202H55.4926ZM41.6426 58.2702C41.6426 59.3002 41.6426 60.3402 41.6426 61.3702C41.6426 61.9102 41.8126 62.3702 42.4226 62.3102C44.5526 62.1102 46.7326 62.3402 48.8126 61.7102C50.3126 61.2502 51.0826 59.9402 51.0026 58.1602C50.9226 56.3802 50.0526 55.2802 48.3826 54.9702C47.3726 54.7802 46.3326 54.6802 45.3126 54.5902C42.8659 54.3768 41.6426 55.5235 41.6426 58.0302C41.6426 58.1102 41.6426 58.1902 41.6426 58.2702Z" fill="#057A47"/>
<path d="M215.052 101.221C215.052 97.4714 215.042 93.7314 215.052 89.9814C215.052 88.1214 215.092 88.1014 216.842 88.0814C218.832 88.0614 220.832 88.0614 222.822 88.0814C224.622 88.1014 224.662 88.1114 224.662 89.9314C224.682 96.2314 224.702 102.531 224.652 108.821C224.642 110.631 224.982 112.471 224.392 114.261C222.662 114.621 220.912 114.401 219.162 114.421C217.892 114.441 216.282 114.961 215.442 114.201C214.462 113.321 215.082 111.641 215.062 110.311C215.002 107.281 215.042 104.251 215.042 101.221H215.052Z" fill="#027845"/>
<path d="M101.272 66.1418C99.512 66.1418 97.762 66.1418 96.002 66.1418C95.382 66.1418 94.922 66.2717 94.932 67.0617C94.962 69.3217 97.162 71.6017 99.402 71.5817C101.002 71.5617 102.002 70.5418 102.812 69.2818C103.952 67.4918 104.242 67.4117 106.152 68.0217C106.992 68.2917 107.252 68.6918 107.062 69.6018C106.502 72.3118 104.142 74.5417 101.092 75.0917C95.852 76.0517 91.602 73.2017 90.412 67.9817C89.862 65.5717 89.992 63.2317 90.922 60.9517C92.452 57.1717 96.122 55.0117 100.102 55.5317C103.992 56.0317 106.782 58.9217 107.332 63.0217C107.342 63.1017 107.352 63.1817 107.352 63.2617C107.572 66.6317 107.952 66.1117 104.872 66.1517C103.672 66.1717 102.482 66.1517 101.282 66.1517L101.272 66.1418ZM98.9821 63.3317C100.012 63.3317 101.042 63.3317 102.082 63.3317C102.832 63.3317 103.002 62.9217 102.852 62.2317C102.452 60.3917 101.022 59.2417 99.092 59.2417C97.152 59.2417 95.522 60.5917 95.182 62.4217C95.062 63.0717 95.312 63.3217 95.882 63.3317C96.912 63.3517 97.9421 63.3317 98.9821 63.3317Z" fill="#057A47"/>
<path d="M81.362 71.1427C83.832 71.1427 86.222 71.2227 88.602 71.1127C90.032 71.0527 90.122 71.7927 90.082 72.8627C90.052 73.8427 90.232 74.7127 88.672 74.6727C84.682 74.5627 80.692 74.6527 76.702 74.6227C75.212 74.6127 75.152 74.4627 75.132 72.9527C75.112 71.6627 75.722 70.6827 76.492 69.7327C78.692 67.0027 80.872 64.2427 83.032 61.4827C83.402 61.0027 83.952 60.6127 84.052 59.6527C81.642 59.6527 79.282 59.6727 76.932 59.6427C76.352 59.6427 75.522 59.9627 75.302 59.1127C75.082 58.2727 75.032 57.3527 75.372 56.5327C75.532 56.1427 76.062 56.2327 76.442 56.2327C80.592 56.2327 84.742 56.2327 88.892 56.2227C89.812 56.2227 90.122 56.5927 90.142 57.5027C90.182 58.9627 89.572 60.1027 88.682 61.1827C86.512 63.8327 84.362 66.5127 82.232 69.2027C81.852 69.6727 81.262 70.0527 81.372 71.1527L81.362 71.1427Z" fill="#057A47"/>
<path d="M68.7921 65.2522C68.7921 62.8622 68.7721 60.4622 68.7921 58.0722C68.8121 56.4422 68.8321 56.4422 70.5421 56.4122C70.8621 56.4122 71.1821 56.4422 71.5021 56.4122C72.5921 56.2822 73.0821 56.6323 73.0721 57.8423C73.0221 63.0223 73.0421 68.2123 73.0621 73.3923C73.0621 74.2723 72.8521 74.7922 71.8621 74.6623C71.7821 74.6523 71.7021 74.6623 71.6221 74.6623C69.7354 74.7489 68.7921 73.8489 68.7921 71.9623C68.7921 69.7323 68.7921 67.4922 68.7921 65.2622V65.2522Z" fill="#057A47"/>
<path d="M220.002 86.54C219.202 86.43 218.402 86.37 217.632 86.2C215.342 85.69 214.342 84.54 214.342 82.5C214.342 80.15 215.412 78.85 217.732 78.3C219.502 77.87 221.222 78.16 222.902 78.63C224.602 79.11 225.452 80.59 225.382 82.52C225.312 84.53 224.452 85.68 222.582 86.14C221.742 86.35 220.862 86.41 220.002 86.54Z" fill="#057A47"/>
<path d="M70.7926 50.5803C72.6126 50.5603 73.5326 51.3203 73.5126 52.7803C73.4926 54.2303 72.5626 54.9503 70.7226 54.9303C69.0526 54.9103 68.3026 54.2303 68.3126 52.7203C68.3326 51.2303 69.0626 50.5903 70.7926 50.5703V50.5803Z" fill="#057A47"/>
</svg>
