<svg width="351" height="178" viewBox="0 0 351 178" fill="none" xmlns="http://www.w3.org/2000/svg">
<path d="M0.0081417 4.89853C0.236109 4.581 0.488502 4.2879 0.683902 3.95409C2.46693 0.900958 5.13741 -0.499414 7.93815 0.160064C10.9587 0.868391 13.2058 3.65285 13.2872 7.10493C13.3849 11.363 13.3035 15.6211 13.2872 19.8711C13.2791 25.5459 13.5071 31.2369 13.1977 36.8954C12.7499 45.2243 18.0664 49.5232 23.9692 49.6779C29.0251 49.8081 35.3757 45.9408 35.0256 36.8058C34.6673 27.2963 34.936 17.7543 34.9604 8.22848C34.9604 7.12121 34.993 5.98952 35.2454 4.91481C35.9781 1.74769 38.8603 -0.255163 42.0274 0.0623632C45.0317 0.371748 47.6533 2.80611 47.6778 5.86739C47.7592 17.9252 48.0279 29.9994 47.5475 42.0409C47.173 51.64 38.2497 60.5307 28.6343 62.0044C15.2413 64.0561 4.57563 57.1764 0.879303 44.1496C0.675761 43.4332 0.944437 42.4562 0 42.0247V40.8116C0.781603 40.2253 0.602485 39.3786 0.602485 38.5889C0.602485 28.5094 0.602485 18.43 0.602485 8.35875C0.602485 7.56901 0.757178 6.72227 0 6.12793V4.91481L0.0081417 4.89853Z" fill="#E75D31"/>
<path d="M241.815 177.113C238.305 175.656 234.52 175.933 230.864 175.493C205.812 172.473 183.268 162.923 162.124 149.643C161.562 149.293 160.854 148.951 160.829 147.755C172.211 151.027 183.487 154.268 194.756 157.508C195.171 158.143 195.667 158.241 196.245 157.712C196.384 157.655 196.506 157.679 196.612 157.769C195.993 158.949 195.334 159.413 193.738 159.088C190.677 158.453 187.607 157.842 184.538 157.24C183.113 156.955 181.599 156.043 179.498 156.808C184.912 160.171 190.473 161.994 196.034 163.68C205.006 166.391 214.027 168.508 223.626 168.239C227.778 168.125 231.988 168.223 236.172 167.97C248.654 167.221 260.231 163.11 271.703 158.575C280.878 154.952 289.183 149.603 298.033 145.304C304.025 142.389 309.619 138.628 315.782 136.022C324.656 132.269 333.05 126.814 343.358 127.799C343.83 127.848 344.432 127.913 344.669 127.311C344.897 126.733 344.449 126.358 344.099 126.024C343.309 125.267 342.674 124.209 341.404 124.192C338.847 124.16 336.576 123.264 333.677 123.745C328.703 124.567 324.119 126.057 319.625 128.019C313.217 130.828 306.932 133.914 300.581 136.853C299.857 137.187 298.872 138.107 298.587 136.372C308.259 130.087 317.654 123.289 329.069 120.244C331.919 119.478 334.825 118.982 337.732 118.803C343.203 118.461 347.933 119.926 350.49 125.381V132.684C350.246 132.969 349.887 133.213 349.765 133.547C346.012 143.985 338.481 151.198 329.297 156.816C312.794 166.904 294.76 172.701 275.635 175.387C271.483 175.974 267.225 175.819 263.17 177.097H259.506C255.843 176.088 252.179 176.12 248.515 177.097H241.798L241.815 177.113ZM221.403 171.178C221.892 171.406 222.128 171.593 222.38 171.634C230.693 172.88 239.071 173.23 247.465 173.507C250.941 173.621 254.304 172.774 257.764 172.855C264.978 173.026 272.085 171.789 279.169 170.787C291.414 169.061 303.219 165.56 314.691 160.806C324.624 156.686 333.221 150.889 340.459 143.008C342.161 141.16 343.04 138.888 343.602 136.535C344.042 134.663 343.276 133.336 341.298 132.538C338.937 131.585 336.877 132.464 334.833 133.189C325.658 136.446 317.085 140.989 308.389 145.345C293.262 152.916 277.809 159.829 261.623 164.893C253.433 167.457 245.12 169.509 236.531 170.543C231.564 171.137 226.614 170.625 221.403 171.178Z" fill="#E75D31"/>
<path d="M0.00976562 6.10938C0.766943 6.70372 0.612251 7.55045 0.612251 8.3402C0.612251 18.4196 0.612251 28.499 0.612251 38.5703C0.612251 39.3601 0.783227 40.2068 0.00976562 40.793V6.10938Z" fill="#EA723A"/>
<path d="M248.533 177.108C252.197 176.131 255.861 176.099 259.524 177.108H248.533Z" fill="#ED8149"/>
<path d="M251.561 105.34C251.561 101.79 251.871 98.2159 251.504 94.6987C250.356 83.6341 264.661 72.0322 277.843 79.7668C279.39 80.6705 280.326 80.7031 281.857 79.7912C287.662 76.331 293.67 76.3962 299.516 79.6528C305.191 82.8118 308.244 87.7294 308.309 94.2753C308.382 101.977 308.341 109.679 308.317 117.39C308.301 121.884 305.858 124.693 301.999 124.733C298.116 124.774 295.518 121.786 295.51 117.194C295.486 109.793 295.502 102.393 295.51 94.9918C295.51 92.6877 294.444 91.0431 292.286 90.351C290.275 89.7078 288.5 90.2777 287.141 92.0038C286.302 93.0622 286.367 94.2753 286.359 95.4803C286.351 102.979 286.432 110.485 286.318 117.984C286.229 123.585 280.871 126.516 276.231 123.634C274.203 122.38 273.495 120.557 273.511 118.236C273.568 111.145 273.536 104.045 273.528 96.9458C273.528 96.1316 273.576 95.3175 273.462 94.5196C273.08 91.7677 271.297 90.1149 268.862 90.1638C266.306 90.2208 264.433 92.0771 264.401 94.9429C264.319 101.937 264.376 108.93 264.376 115.924C264.376 116.836 264.441 117.756 264.352 118.66C263.969 122.348 261.111 124.88 257.611 124.717C253.963 124.546 251.594 121.99 251.561 118.106C251.529 113.848 251.553 109.59 251.553 105.332H251.569L251.561 105.34Z" fill="#F7AF64"/>
<path d="M307.039 46.4272C307.039 54.634 307.039 62.849 307.039 71.0558C307.039 73.8973 305.639 75.835 303.091 77.0155C300.705 78.1228 298.515 77.6017 296.512 76.1199C294.949 74.9638 294.2 73.3436 294.208 71.3815C294.216 68.4423 294.094 65.495 294.224 62.564C294.314 60.5693 293.923 60.1785 291.912 60.9275C281.523 64.7867 270.76 61.6766 264.149 53.0627C261.226 49.2524 259.533 44.9373 259.402 40.1418C259.239 34.0681 259.215 27.9862 259.272 21.9044C259.313 17.8336 261.918 15.1875 265.59 15.1875C269.498 15.1875 272.103 17.8498 272.136 21.9777C272.177 27.2454 272.136 32.5212 272.16 37.7888C272.201 44.8477 276.76 49.8386 283.111 49.8141C289.478 49.7978 294.151 44.7581 294.184 37.854C294.2 32.5863 294.151 27.3105 294.2 22.0428C294.241 17.7359 296.708 15.1549 300.616 15.2038C304.515 15.2526 307.015 17.8987 307.031 22.1079C307.064 30.2171 307.039 38.3262 307.031 46.4353L307.039 46.4272Z" fill="#E75D31"/>
<path d="M162.278 44.4435C164.753 49.988 170.909 50.9162 174.979 49.0599C176.787 48.2376 178.627 47.6025 180.556 48.262C183.007 49.1006 184.749 50.7208 185.124 53.4401C185.515 56.2734 184.408 58.488 181.941 59.7988C174.637 63.6824 167.139 63.9266 159.811 60.0675C150.611 55.2232 145.604 44.989 147.241 35.0969C148.853 25.3676 157.125 17.2829 167.286 15.4998C180.426 13.2039 194.536 24.9442 194.633 38.264C194.658 41.3009 193.192 43.149 190.253 44.0039C188.853 44.411 187.452 44.4273 186.028 44.4273C178.228 44.4273 170.428 44.4273 162.27 44.4273L162.278 44.4435ZM170.306 33.4604C172.74 33.4604 175.167 33.4441 177.601 33.4604C178.863 33.4685 179.384 33.0533 178.554 31.8728C176.657 29.1779 173.962 27.9566 170.729 27.9973C167.538 28.0299 164.737 29.0639 162.808 31.7425C161.847 33.0696 162.555 33.4848 163.923 33.4604C166.048 33.4278 168.181 33.4523 170.306 33.4523V33.4604Z" fill="#E75D31"/>
<path d="M53.8269 23.4516C53.8269 18.184 53.7943 12.9081 53.835 7.64047C53.8676 2.92642 56.3508 0.0605469 60.2995 0.0605469C64.4355 0.0605469 67.0409 2.93457 67.1711 7.66489C67.3068 12.2677 69.6842 14.569 74.3033 14.569C77.3564 14.569 80.4095 14.5365 83.4545 14.5853C87.7778 14.6505 90.3913 17.0604 90.4238 20.944C90.4564 24.7055 87.7452 27.5795 83.6825 27.7342C79.5221 27.897 75.3454 27.7749 71.1687 27.783C67.1956 27.783 67.1793 27.783 67.1711 31.6503C67.1711 34.0847 67.1304 36.5191 67.2444 38.9453C67.4561 43.3744 69.5811 46.688 73.5786 48.6013C77.5844 50.5228 81.4924 49.9284 85.091 47.4127C86.4262 46.4764 87.6475 45.3935 89.3247 45.1248C92.2313 44.6526 95.1053 46.1833 96.351 48.8456C97.6781 51.687 97.157 54.154 94.5924 56.4825C86.9229 63.4355 78.0647 64.4532 68.7995 60.6999C59.3632 56.8652 54.3561 49.4399 53.8758 39.271C53.6234 34.0114 53.835 28.7275 53.835 23.4598C53.835 23.4598 53.8269 23.4598 53.8188 23.4598L53.8269 23.4516Z" fill="#E75D31"/>
<path d="M100.699 24.7314C100.699 18.1285 100.674 12.7549 100.707 7.38143C100.739 2.8465 103.149 0.102753 107.074 0.0457613C111.104 -0.0112306 113.848 2.83836 114.084 7.2593C114.206 9.5634 113.066 12.5921 114.572 13.9925C116.306 15.6127 119.417 14.4321 121.924 14.5298C124.766 14.6357 127.623 14.5136 130.465 14.5705C134.544 14.6438 137.182 17.0863 137.296 20.7989C137.41 24.4871 134.56 27.6135 130.668 27.7357C125.995 27.8822 121.305 27.8578 116.632 27.7357C114.654 27.6868 113.913 28.273 114.027 30.3003C114.181 33.1336 114.01 35.9751 114.1 38.8165C114.247 43.2456 116.266 46.6488 120.304 48.5377C124.367 50.4347 128.348 50.166 132.052 47.3327C135.789 44.475 138.59 44.3122 141.375 46.6325C144.493 49.2298 144.688 53.3576 141.684 56.199C134.861 62.6473 126.785 64.1698 117.975 61.5074C109.117 58.8288 103.329 52.9424 101.334 43.8155C99.8683 37.1149 101.041 30.2677 100.682 24.7314H100.699Z" fill="#E75D31"/>
<path d="M192.982 74.8039C193.731 83.662 190.401 91.3396 182.26 96.7539C182.007 96.9249 181.763 97.1772 181.486 97.2261C176.707 98.1461 176.178 101.378 176.503 105.522C176.837 109.756 176.617 114.031 176.56 118.289C176.512 122.246 173.89 124.81 170.071 124.769C166.554 124.729 163.745 122.026 163.68 118.378C163.591 112.907 163.566 107.436 163.688 101.965C163.729 99.9698 163.135 98.9277 161.246 98.0484C152.64 94.0183 148.162 87.1467 147.828 77.6697C147.722 74.7306 147.731 71.7914 147.828 68.8523C147.959 64.9606 150.719 62.1517 154.277 62.1272C157.867 62.0947 160.774 64.7814 161.01 68.6325C161.197 71.6612 161.026 74.7143 161.107 77.7512C161.246 82.8804 164.796 86.6175 169.778 86.9594C174.517 87.2851 178.612 84.0773 179.654 79.2574C180.371 75.9437 180.183 72.5812 179.955 69.2675C179.662 64.8466 183.481 62.111 186.623 62.1354C190.287 62.1598 192.925 65.1397 192.974 69.2187C192.99 70.8389 192.974 72.4591 192.974 74.8039H192.982Z" fill="#F7AF64"/>
<path d="M197.787 93.512C197.787 90.467 197.763 87.4301 197.787 84.3851C197.828 80.07 200.254 77.31 204.024 77.253C207.802 77.1879 210.529 80.1515 210.57 84.4747C210.619 90.1495 210.505 95.8324 210.627 101.507C210.724 106.009 213.778 109.974 217.946 111.399C222.172 112.84 226.951 111.611 229.906 108.297C231.917 106.05 232.544 103.323 232.56 100.416C232.585 95.1485 232.536 89.8726 232.56 84.605C232.585 80.355 235.312 77.2693 239 77.253C242.648 77.2367 245.522 80.3631 245.416 84.5968C245.237 91.7778 246.198 99.0076 244.838 106.132C242.583 117.937 231.144 125.908 218.492 124.678C207.077 123.563 197.852 113.345 197.787 101.727C197.771 98.9913 197.787 96.2557 197.787 93.512Z" fill="#F7AF64"/>
<path d="M98.1755 106.06C106.276 111.881 114.117 117.979 120.077 126.121C120.964 127.334 121.843 128.555 122.902 130.005C116.429 132.382 110.176 133.66 103.647 131.82C100.17 130.843 97.6463 128.523 95.5213 125.698C92.2158 121.301 89.8221 116.343 86.8667 111.735C83.6426 106.687 80.4103 101.647 75.5171 97.9427C73.2293 96.2085 70.7135 94.9954 67.8232 94.0428C69.6063 92.5448 71.7231 92.8704 73.4491 92.7809C83.1703 92.2761 92.8671 92.0481 102.32 95.3618C117.162 100.564 124.579 111.222 126.167 126.422C126.264 127.326 126.492 128.507 125.564 128.914C124.449 129.402 124.123 128.083 123.61 127.432C116.665 118.566 108.874 110.66 98.6233 105.555C98.3627 105.433 98.0941 105.303 97.8335 105.173C97.3125 104.7 96.7588 104.464 96.1319 105.002C96.5471 105.213 96.9705 105.433 97.3857 105.645C97.6463 105.783 97.9068 105.922 98.1673 106.06H98.1755Z" fill="#87AC52"/>
<path d="M298.604 136.384C298.881 138.11 299.874 137.199 300.599 136.865C306.949 133.926 313.235 130.832 319.642 128.031C324.128 126.061 328.712 124.579 333.695 123.757C336.593 123.276 338.865 124.172 341.421 124.204C342.683 124.221 343.327 125.271 344.116 126.036C344.466 126.37 344.914 126.745 344.686 127.323C344.45 127.925 343.848 127.86 343.375 127.811C333.068 126.826 324.674 132.289 315.799 136.034C309.636 138.64 304.043 142.409 298.051 145.316C289.209 149.615 280.896 154.956 271.72 158.587C260.249 163.122 248.663 167.233 236.19 167.982C232.005 168.235 227.796 168.129 223.644 168.251C214.053 168.52 205.032 166.411 196.051 163.692C190.482 162.006 184.922 160.183 179.516 156.82C181.608 156.063 183.122 156.975 184.555 157.251C187.625 157.854 190.694 158.465 193.755 159.1C195.351 159.433 196.011 158.961 196.629 157.781C204.682 158.864 212.717 160.093 220.875 160.199C241.189 160.459 260.346 155.688 278.633 147.099C280.196 146.366 281.783 145.698 283.363 144.998C283.477 145.446 283.55 146.13 284.21 145.682C284.625 145.405 284.21 145.023 283.868 144.803C285.146 143.826 286.514 143.044 288.093 142.653C288.378 143.321 288.663 143.386 288.956 142.653L289.168 142.759C289.168 142.759 289.095 142.979 289.095 142.987C289.502 142.735 289.909 142.474 290.316 142.222L290.292 142.352C290.756 142.311 291.081 142.108 291.195 141.636L290.935 141.619C290.935 141.619 290.918 141.359 290.918 141.367C292.742 141.929 293.711 141.302 293.727 139.356C293.98 138.876 294.427 138.713 294.932 138.656C295.006 139.25 295.087 139.845 295.934 139.429C296.821 138.99 296.764 138.517 295.966 138.029C296.683 137.215 297.595 136.71 298.612 136.368L298.604 136.384Z" fill="#EA723A"/>
<path d="M232.911 27.792C232.911 20.8227 232.911 15.1479 232.911 9.46503C232.911 8.55316 232.886 7.63315 232.984 6.72942C233.391 2.96795 236.126 0.305619 239.497 0.338186C243.031 0.378895 245.823 3.1715 245.937 7.10394C246.067 11.761 245.978 16.4262 245.978 21.0914C245.978 28.8993 245.962 36.699 245.978 44.5069C245.986 48.4149 247.232 49.8153 251.026 50.3852C254.633 50.9225 257.051 53.4302 256.969 56.5403C256.888 59.8784 254.022 62.5733 250.326 62.7769C242.127 63.2491 234.14 56.3286 233.204 47.7554C232.438 40.6884 233.114 33.5726 232.894 27.7838L232.911 27.792Z" fill="#E75D31"/>
<path d="M198.969 46.46C198.969 43.8221 198.928 41.1923 198.977 38.5544C199.221 26.0813 209.415 15.7983 221.945 15.3668C225.853 15.2284 228.833 17.7116 229.085 21.3021C229.338 24.9333 227.123 27.441 223.15 28.0272C214.788 29.2566 211.939 32.4888 211.874 40.9399C211.833 45.8086 211.89 50.6692 211.857 55.538C211.817 60.1869 209.513 62.7434 205.474 62.7352C201.42 62.7271 199.083 60.1869 198.985 55.5868C198.92 52.55 198.977 49.505 198.977 46.4681L198.969 46.46Z" fill="#E75D31"/>
<path d="M150.432 136.255C145.604 140.375 140.467 143.599 133.872 143.713C128.71 143.803 125.039 141.263 121.839 137.591C120.675 136.255 121.277 135.051 122.034 134.139C126.129 129.205 130.143 128.513 136.046 131.517C140.548 133.805 144.847 136.728 150.432 136.255ZM130.575 138.551H137.349C134.589 137.843 132.627 137.11 130.575 138.551Z" fill="#87AC52"/>
<path d="M293.72 139.363C293.704 141.309 292.735 141.936 290.911 141.374C291.44 140.137 292.629 139.819 293.72 139.363Z" fill="#E75D31"/>
<path d="M295.962 138.039C296.76 138.528 296.808 139 295.929 139.439C295.082 139.855 295.001 139.26 294.928 138.666C295.278 138.454 295.62 138.251 295.97 138.039H295.962Z" fill="#E75D31"/>
<path d="M283.863 144.806C284.197 145.026 284.62 145.408 284.205 145.685C283.546 146.133 283.472 145.449 283.358 145.001C283.489 144.846 283.66 144.781 283.863 144.806Z" fill="#E75D31"/>
<path d="M196.247 157.727C195.669 158.248 195.172 158.158 194.757 157.523C195.31 157.165 195.783 157.425 196.247 157.727Z" fill="#EA723A"/>
<path d="M291.19 141.645C291.076 142.117 290.75 142.32 290.286 142.361C290.213 141.645 290.506 141.4 291.19 141.645Z" fill="#E75D31"/>
<path d="M290.303 142.232C289.896 142.485 289.489 142.745 289.082 142.998C289.017 141.996 289.481 141.825 290.303 142.232Z" fill="#E75D31"/>
<path d="M288.948 142.664C288.663 143.389 288.378 143.332 288.085 142.664C288.37 142.664 288.655 142.664 288.948 142.664Z" fill="#E75D31"/>
<path d="M221.407 171.175C226.61 170.621 231.56 171.134 236.535 170.54C245.124 169.506 253.445 167.454 261.627 164.889C277.813 159.825 293.274 152.913 308.393 145.341C317.08 140.985 325.654 136.442 334.837 133.186C336.881 132.461 338.941 131.582 341.302 132.534C343.28 133.332 344.046 134.651 343.606 136.532C343.052 138.885 342.165 141.156 340.463 143.004C333.225 150.877 324.628 156.682 314.695 160.802C303.223 165.557 291.426 169.058 279.173 170.784C272.089 171.785 264.982 173.023 257.768 172.852C254.308 172.77 250.945 173.617 247.469 173.503C239.075 173.226 230.697 172.876 222.384 171.631C222.124 171.59 221.888 171.411 221.407 171.175Z" fill="#ED8149"/>
<path d="M130.575 138.549C132.627 137.108 134.589 137.841 137.349 138.549H130.575Z" fill="#F7AF64"/>
</svg>
